<svg height="50" viewBox="0 0 201 50" width="201" xmlns="http://www.w3.org/2000/svg"><g fill="#fff" transform=""><path d="m198.4818 37.7377h1.65068v-25.32744h-1.65068v11.44862h-13.25532v-11.44862h-1.6559v25.32744h1.6559v-12.32036h13.25532z"/><path d="m162.06302 34.8522c1.9314 2.07292 4.50544 3.4336 8.01096 3.50668 3.76652.08004 7.98254-2.18892 7.97732-6.65376 0-4.66494-3.6772-6.05288-7.26682-7.43096-2.29274-.8787-6.21296-2.10018-6.2147-6.03374-.00232-2.96786 2.63958-4.96016 6.01518-4.88302 1.93836.04582 3.87324.98368 5.74838 2.53924l1.02892-1.18146c-2.27998-2.00216-4.62782-2.87042-6.82254-2.91682-4.21022-.0928-7.64556 2.378-7.64382 6.44206 0 4.97524 4.32274 6.33244 7.00814 7.3979 3.10068 1.23308 6.44206 2.43368 6.44206 6.0668.00522 2.94002-2.7405 5.17012-6.46178 5.06456-2.65756-.07424-4.72816-.97208-6.6352-3.00208z"/><path d="m71.4357 12.50944h5.9827l12.2844 18.83666h.06728v-18.83666h4.51414v25.35354h-5.73098l-12.52626-19.4445h-.07772v19.4445h-4.51356z"/><path d="m.23026 2.42962c0 1.12694.90248 2.01202 2.0213 2.01202 1.11302 0 2.01666-.88508 2.01666-2.01202 0-1.12114-.90364-2.00796-2.01666-2.00796-1.11882.00058-2.0213.8874-2.0213 2.00796"/><path d="m.23026 7.49998c0 1.10316.90248 2.0097 2.0213 2.0097 1.11302 0 2.01666-.90654 2.01666-2.0097 0-1.12172-.90364-2.03174-2.01666-2.03174-1.11882 0-2.0213.91002-2.0213 2.03174"/><path d="m5.28322 7.49998c.0145 1.10316.91118 2.0097 2.03522 2.0097 1.102 0 2.01666-.90654 2.01666-2.0097 0-1.12172-.91466-2.03174-2.01666-2.03174-1.12404 0-2.03522.91002-2.03522 2.03174"/><path d="m10.3646 7.49998c0 1.10316.9019 2.0097 2.00564 2.0097 1.1194 0 2.01666-.90654 2.02594-2.0097 0-1.12172-.90654-2.03174-2.02594-2.03174-1.10374 0-2.00564.91002-2.00564 2.03174"/><path d="m15.4077 7.49998c.01392 1.10316.91698 2.0097 2.0271 2.0097 1.12114 0 2.01376-.90654 2.0242-2.0097 0-1.12172-.90306-2.03174-2.0242-2.03174-1.11012 0-2.01318.91002-2.0271 2.03174"/><path d="m20.47864 7.49998c.01044 1.10316.91524 2.0097 2.01376 2.0097 1.11592 0 2.03348-.90654 2.03348-2.0097 0-1.12172-.91756-2.03174-2.03348-2.03174-1.09852 0-2.00332.91002-2.01376 2.03174"/><path d="m25.53624 7.49998c0 1.10316.91234 2.0097 2.03522 2.0097 1.10374 0 2.00912-.90654 2.00912-2.0097 0-1.12172-.90538-2.03174-2.00912-2.03174-1.12288 0-2.03522.91002-2.03522 2.03174"/><path d="m20.47864 7.49998c.01044 1.10316.91524 2.0097 2.01376 2.0097 1.11592 0 2.03348-.90654 2.03348-2.0097 0-1.12172-.91756-2.03174-2.03348-2.03174-1.09852 0-2.00332.91002-2.01376 2.03174"/><path d="m.23026 12.55468c0 1.11824.90248 2.02942 2.0213 2.02942 1.11302 0 2.01666-.91118 2.01666-2.02942 0-1.1165-.90364-2.0271-2.01666-2.0271-1.11882-.00058-2.0213.9106-2.0213 2.0271"/><path d="m10.3646 12.55468c0 1.11824.9019 2.02942 2.00564 2.02942 1.1194 0 2.02594-.91118 2.02594-2.02942 0-1.1165-.90654-2.0271-2.02594-2.0271-1.10374-.00058-2.00564.9106-2.00564 2.0271"/><path d="m15.4077 12.55468c.01392 1.11824.91698 2.02942 2.0271 2.02942 1.12114 0 2.0242-.91118 2.0242-2.02942 0-1.1165-.90306-2.0271-2.0242-2.0271-1.11012-.00058-2.0271.9106-2.0271 2.0271"/><path d="m20.47864 12.55468c0 1.11824.91524 2.02942 2.01376 2.02942 1.11592 0 2.03348-.91118 2.03348-2.02942 0-1.1165-.91756-2.0271-2.03348-2.0271-1.09852-.00058-2.01376.9106-2.01376 2.0271"/><path d="m25.53624 12.55468c0 1.11824.91234 2.02942 2.03522 2.02942 1.10374 0 2.00912-.91118 2.00912-2.02942 0-1.1165-.90538-2.0271-2.00912-2.0271-1.12288-.00058-2.03522.9106-2.03522 2.0271"/><path d="m30.60834 12.55468c0 1.11824.90422 2.02942 2.0155 2.02942 1.11824 0 2.0213-.91118 2.0213-2.02942 0-1.1165-.90364-2.0271-2.0213-2.0271-1.11128-.00058-2.0155.9106-2.0155 2.0271"/><path d="m10.3646 17.62504c0 1.1136.9019 2.00448 2.00564 2.00448 1.1194 0 2.02594-.89088 2.02594-2.00448 0-1.11882-.90654-2.0242-2.02594-2.0242-1.10374-.00058-2.00564.9048-2.00564 2.0242"/><path d="m15.4077 17.62504c0 1.1136.91698 2.00448 2.0271 2.00448 1.12114 0 2.0242-.89088 2.0242-2.00448 0-1.11882-.90306-2.0242-2.0242-2.0242-1.11012-.00058-2.0271.9048-2.0271 2.0242"/><path d="m20.47864 17.62504c0 1.1136.91524 2.00448 2.01376 2.00448 1.11592 0 2.03348-.89088 2.03348-2.00448 0-1.11882-.91756-2.0242-2.03348-2.0242-1.09852-.00058-2.01376.9048-2.01376 2.0242"/><path d="m25.53624 17.62504c0 1.1136.91234 2.00448 2.03522 2.00448 1.10374 0 2.00912-.89088 2.00912-2.00448 0-1.11882-.90538-2.0242-2.00912-2.0242-1.12288-.00058-2.03522.9048-2.03522 2.0242"/><path d="m50.8631 17.62504c0 1.1136.89552 2.00448 2.01376 2.00448 1.12868 0 2.02536-.89088 2.02536-2.00448 0-1.11882-.89668-2.0242-2.02536-2.0242-1.11824-.00058-2.01376.9048-2.01376 2.0242"/><path d="m10.3646 22.69424c0 1.11186.9019 2.0184 2.00564 2.0184 1.1194 0 2.01666-.90654 2.01666-2.0184 0-1.10954-.89726-2.02246-2.01666-2.03812-1.10374.01624-2.00564.92916-2.00564 2.03812"/><path d="m15.4077 22.69424c.01392 1.11186.91698 2.0184 2.0271 2.0184 1.12114 0 2.01376-.90654 2.0242-2.0184 0-1.10954-.90306-2.02246-2.0242-2.03812-1.11012.01624-2.01318.92916-2.0271 2.03812"/><path d="m5.28322 22.69424c0 1.11186.91118 2.0184 2.03522 2.0184 1.1107 0 2.01666-.90654 2.01666-2.0184 0-1.10954-.90596-2.02246-2.01666-2.03812-1.12404.01624-2.03522.92916-2.03522 2.03812"/><path d="m20.47864 22.69424c0 1.11186.91524 2.0184 2.01376 2.0184 1.11592 0 2.03348-.90654 2.03348-2.0184 0-1.10954-.91756-2.02246-2.03348-2.03812-1.09852.01624-2.01376.92916-2.01376 2.03812"/><path d="m25.53624 22.69424c0 1.11186.91234 2.0184 2.03522 2.0184 1.10374 0 2.00912-.90654 2.00912-2.0184 0-1.10954-.90538-2.02246-2.00912-2.03812-1.12288.01624-2.03522.92916-2.03522 2.03812"/><path d="m30.60834 22.69424c.00406 1.11186.90422 2.0184 2.0155 2.0184 1.11824 0 2.0213-.90654 2.0213-2.0184 0-1.10954-.90364-2.02246-2.0213-2.03812-1.11128.01624-2.01144.92916-2.0155 2.03812"/><path d="m35.67232 22.69424c0 1.11186.90538 2.0184 2.01434 2.0184 1.12288 0 2.01782-.90654 2.02768-2.0184-.00986-1.10954-.90538-2.02246-2.02768-2.03812-1.10954.01624-2.01434.92916-2.01434 2.03812"/><path d="m40.7276 22.69424c0 1.11186.90538 2.0184 2.02536 2.0184 1.12172 0 2.01608-.90654 2.02594-2.0184-.01044-1.10954-.9048-2.02246-2.02594-2.03812-1.12056.01624-2.02536.92916-2.02536 2.03812"/><path d="m45.78694 22.69424c.0116 1.11186.90654 2.0184 2.02942 2.0184 1.11708 0 2.02536-.90654 2.02536-2.0184 0-1.10954-.90828-2.02246-2.02536-2.03812-1.1223.01624-2.01782.92916-2.02942 2.03812"/><path d="m10.3646 27.7443c0 1.11592.9019 2.02942 2.00564 2.02942 1.1194 0 2.02594-.90944 2.02594-2.02942 0-1.12404-.90654-2.00274-2.02594-2.00274-1.10374.00058-2.00564.8787-2.00564 2.00274"/><path d="m15.42162 27.7443c0 1.11592.90306 2.02942 2.01376 2.02942 1.12114 0 2.02246-.90944 2.02246-2.02942-.00928-1.12404-.90132-2.00274-2.02246-2.00274-1.1107.00058-2.01376.8787-2.01376 2.00274"/><path d="m20.47864 27.7443c0 1.11592.91524 2.02942 2.01376 2.02942 1.11592 0 2.03348-.91292 2.03348-2.02942 0-1.12404-.91756-2.00274-2.03348-2.00274-1.09852.00058-2.01376.8787-2.01376 2.00274"/><path d="m25.53624 27.7443c0 1.11592.91234 2.02942 2.03522 2.02942 1.10374 0 2.00912-.91292 2.00912-2.02942 0-1.12404-.90538-2.00274-2.00912-2.00274-1.12288.00058-2.03522.8787-2.03522 2.00274"/><path d="m30.60834 27.7443c0 1.11592.90422 2.02942 2.0155 2.02942 1.11824 0 2.02536-.91292 2.02536-2.02942 0-1.12404-.90712-2.00274-2.02536-2.00274-1.11128.00058-2.0155.8787-2.0155 2.00274"/><path d="m35.67232 27.7443c0 1.1194.89552 2.02942 2.01434 2.02942 1.12288 0 2.01782-.91292 2.02768-2.02942-.00986-1.12404-.90538-2.00274-2.02768-2.00274-1.11882.00058-2.01434.8787-2.01434 2.00274"/><path d="m40.7276 27.7443c0 1.11592.90538 2.02942 2.02536 2.02942 1.12172 0 2.02594-.91292 2.02594-2.02942 0-1.12404-.9048-2.00274-2.02594-2.00274-1.12056.00058-2.02536.8787-2.02536 2.00274"/><path d="m45.78694 27.7443c0 1.11592.91466 2.02942 2.02942 2.02942 1.11708 0 2.02536-.91292 2.02536-2.02942 0-1.12404-.90828-2.00274-2.02536-2.00274-1.11418.00058-2.02942.8787-2.02942 2.00274"/><path d="m10.3646 32.81408c0 1.1194.9019 2.02884 2.00564 2.02884 1.1194 0 2.02594-.90944 2.02594-2.02884 0-1.11476-.90654-2.01608-2.02594-2.01608-1.10374.00058-2.00564.90132-2.00564 2.01608"/><path d="m15.42162 32.81408c0 1.1194.90306 2.02884 2.01376 2.02884 1.12114 0 2.02246-.90944 2.02246-2.02884 0-1.11476-.90132-2.01608-2.02246-2.01608-1.1107.00058-2.01376.90132-2.01376 2.01608"/><path d="m20.47864 32.81408c0 1.1194.91524 2.02884 2.01376 2.02884 1.11592 0 2.03348-.90944 2.03348-2.02884 0-1.11476-.91756-2.01608-2.03348-2.01608-1.09852.00058-2.01376.90132-2.01376 2.01608"/><path d="m25.53624 32.81408c0 1.1194.91234 2.02884 2.03522 2.02884 1.10374 0 2.00912-.90944 2.00912-2.02884 0-1.11476-.90538-2.01608-2.00912-2.01608-1.12288.00058-2.03522.90132-2.03522 2.01608"/><path d="m30.60834 32.81408c0 1.1194.90422 2.02884 2.0155 2.02884 1.11824 0 2.0213-.90944 2.0213-2.02884 0-1.11476-.90364-2.01608-2.0213-2.01608-1.11128.00058-2.0155.90132-2.0155 2.01608"/><path d="m35.67232 32.81408c0 1.1194.90538 2.02884 2.01434 2.02884 1.12288 0 2.01782-.90944 2.02768-2.02884-.00986-1.11476-.90538-2.01608-2.02768-2.01608-1.10954.00058-2.01434.90132-2.01434 2.01608"/><path d="m40.7276 32.81408c0 1.1194.90538 2.02884 2.02536 2.02884 1.12172 0 2.02594-.90944 2.02594-2.02884 0-1.11476-.9048-2.01608-2.02594-2.01608-1.12056.00058-2.02536.90132-2.02536 2.01608"/><path d="m20.47864 37.86994c0 1.12404.91524 2.03 2.01376 2.03 1.11592 0 2.03348-.90596 2.03348-2.03 0-1.09794-.91756-2.0097-2.03348-2.0097-1.09852 0-2.01376.91176-2.01376 2.0097"/><path d="m25.53624 37.86994c0 1.12404.91234 2.03 2.03522 2.03 1.10374 0 2.00912-.90596 2.00912-2.03 0-1.09794-.90538-2.0097-2.00912-2.0097-1.12288 0-2.03522.91176-2.03522 2.0097"/><path d="m30.60834 37.86994c0 1.12404.90422 2.03 2.0155 2.03 1.11824 0 2.02536-.90596 2.02536-2.03-.00406-1.09794-.90712-2.0097-2.02536-2.0097-1.11128 0-2.01144.91176-2.0155 2.0097"/><path d="m35.67232 37.86994c0 1.12404.89552 2.03 2.01434 2.03 1.12288 0 2.02768-.90596 2.02768-2.03-.00986-1.09794-.90538-2.0097-2.02768-2.0097-1.11882 0-2.00622.91176-2.01434 2.0097"/><path d="m40.7276 37.86994c0 1.12404.90538 2.03 2.02536 2.03 1.12172 0 2.02594-.90596 2.02594-2.03 0-1.09794-.9048-2.0097-2.02594-2.0097-1.12056 0-2.02536.91176-2.02536 2.0097"/><path d="m25.53624 42.94668c0 1.1165.91234 2.00448 2.03522 2.00448 1.10374 0 2.00912-.88798 2.00912-2.00448 0-1.13158-.90538-2.0155-2.00912-2.0155-1.12288 0-2.03522.88392-2.03522 2.0155"/><path d="m35.67232 42.94668c0 1.1165.89552 2.00448 2.01434 2.00448 1.12288 0 2.02768-.88798 2.02768-2.00448 0-1.13158-.90538-2.0155-2.02768-2.0155-1.11882 0-2.01434.88392-2.01434 2.0155"/><path d="m40.7276 42.94668c0 1.1165.90538 2.00448 2.02536 2.00448 1.12172 0 2.02594-.88798 2.02594-2.00448 0-1.13158-.9048-2.0155-2.02594-2.0155-1.12056 0-2.02536.88392-2.02536 2.0155"/><path d="m45.79854 42.94668c0 1.1165.89552 2.00448 2.01782 2.00448 1.11708 0 2.02478-.88798 2.02478-2.00448 0-1.13158-.9077-2.0155-2.02478-2.0155-1.1223 0-2.01782.88392-2.01782 2.0155"/><path d="m35.67232 48.00196c0 1.1078.89552 2.02304 2.01434 2.02304 1.12288 0 2.01782-.91524 2.02768-2.02304-.00986-1.11476-.90538-2.0271-2.02768-2.0271-1.11882 0-2.01434.91234-2.01434 2.0271"/><path d="m40.7276 48.00196c.00406 1.1078.90538 2.02304 2.02536 2.02304 1.12172 0 2.02594-.91524 2.02594-2.02304 0-1.11476-.9048-2.0271-2.02594-2.0271-1.12056 0-2.02536.91234-2.02536 2.0271"/><path d="m108.13346 12.50944h3.90282l10.91966 25.35354h-5.15156l-2.36524-5.8h-10.99506l-2.28984 5.8h-5.04948zm5.73098 15.68552-3.90398-10.3124-3.97706 10.3124z"/><path d="m125.78112 12.50944h4.51298v10.09896h11.8523v-10.09896h4.5095v25.35354h-4.5095v-11.17138h-11.8523v11.17138h-4.51298z"/><path d="m154.77996 32.5641c1.5341 0 2.86172 1.17856 2.86172 2.71962 0 1.54048-1.28992 2.7956-2.86172 2.7956-1.5051 0-2.86694-1.1861-2.86694-2.7231 0-1.53932 1.2876-2.79212 2.86694-2.79212"/></g></svg>